<svg width="26" height="26" viewBox="0 0 26 26" fill="none" xmlns="http://www.w3.org/2000/svg">
<rect x="0.5" y="0.5" width="25" height="25" rx="12" fill="#495675"/>
<path d="M9.25 10.75C8.8375 10.75 8.48438 10.6031 8.19063 10.3094C7.89688 10.0156 7.75 9.6625 7.75 9.25C7.75 8.8375 7.89688 8.48438 8.19063 8.19063C8.48438 7.89688 8.8375 7.75 9.25 7.75C9.6625 7.75 10.0156 7.89688 10.3094 8.19063C10.6031 8.48438 10.75 8.8375 10.75 9.25C10.75 9.6625 10.6031 10.0156 10.3094 10.3094C10.0156 10.6031 9.6625 10.75 9.25 10.75ZM7.75 20.5C7.5375 20.5 7.35938 20.4281 7.21563 20.2844C7.07188 20.1406 7 19.9625 7 19.75C6.5875 19.75 6.23438 19.6031 5.94063 19.3094C5.64687 19.0156 5.5 18.6625 5.5 18.25V13.75H7.75V13.1875C7.75 12.7125 7.9125 12.3125 8.2375 11.9875C8.5625 11.6625 8.9625 11.5 9.4375 11.5C9.6875 11.5 9.91875 11.55 10.1313 11.65C10.3438 11.75 10.5375 11.8875 10.7125 12.0625L11.7625 13.225C11.8625 13.325 11.9594 13.4188 12.0531 13.5063C12.1469 13.5938 12.25 13.675 12.3625 13.75H17.5V7.6375C17.5 7.4625 17.4375 7.3125 17.3125 7.1875C17.1875 7.0625 17.0375 7 16.8625 7C16.7875 7 16.7156 7.01562 16.6469 7.04688C16.5781 7.07812 16.5125 7.125 16.45 7.1875L15.5125 8.125C15.575 8.3375 15.5875 8.54688 15.55 8.75313C15.5125 8.95938 15.4375 9.15 15.325 9.325L13.2625 7.225C13.4375 7.1125 13.625 7.04063 13.825 7.00938C14.025 6.97813 14.225 7 14.425 7.075L15.3625 6.1375C15.5625 5.9375 15.7906 5.78125 16.0469 5.66875C16.3031 5.55625 16.575 5.5 16.8625 5.5C17.4625 5.5 17.9688 5.70625 18.3813 6.11875C18.7938 6.53125 19 7.0375 19 7.6375V13.75H20.5V18.25C20.5 18.6625 20.3531 19.0156 20.0594 19.3094C19.7656 19.6031 19.4125 19.75 19 19.75C19 19.9625 18.9281 20.1406 18.7844 20.2844C18.6406 20.4281 18.4625 20.5 18.25 20.5H7.75ZM7 18.25H19V15.25H7V18.25Z" fill="white"/>
</svg>
