<svg width="26" height="26" viewBox="0 0 26 26" fill="none" xmlns="http://www.w3.org/2000/svg">
<rect x="0.5" y="0.5" width="25" height="25" rx="12" fill="#495675"/>
<path d="M4.5 19V13.8571C4.5 13.4714 4.57792 13.1214 4.73375 12.8071C4.88958 12.4929 5.095 12.2143 5.35 11.9714V9.57143C5.35 8.85714 5.59792 8.25 6.09375 7.75C6.58958 7.25 7.19167 7 7.9 7H11.3C11.6258 7 11.9304 7.06071 12.2137 7.18214C12.4971 7.30357 12.7592 7.47143 13 7.68571C13.2408 7.47143 13.5029 7.30357 13.7863 7.18214C14.0696 7.06071 14.3742 7 14.7 7H18.1C18.8083 7 19.4104 7.25 19.9062 7.75C20.4021 8.25 20.65 8.85714 20.65 9.57143V11.9714C20.905 12.2143 21.1104 12.4929 21.2663 12.8071C21.4221 13.1214 21.5 13.4714 21.5 13.8571V19H19.8V17.2857H6.2V19H4.5ZM13.85 11.2857H18.95V9.57143C18.95 9.32857 18.8685 9.125 18.7056 8.96071C18.5427 8.79643 18.3408 8.71429 18.1 8.71429H14.7C14.4592 8.71429 14.2573 8.79643 14.0944 8.96071C13.9315 9.125 13.85 9.32857 13.85 9.57143V11.2857ZM7.05 11.2857H12.15V9.57143C12.15 9.32857 12.0685 9.125 11.9056 8.96071C11.7427 8.79643 11.5408 8.71429 11.3 8.71429H7.9C7.65917 8.71429 7.45729 8.79643 7.29438 8.96071C7.13146 9.125 7.05 9.32857 7.05 9.57143V11.2857ZM6.2 15.5714H19.8V13.8571C19.8 13.6143 19.7185 13.4107 19.5556 13.2464C19.3927 13.0821 19.1908 13 18.95 13H7.05C6.80917 13 6.60729 13.0821 6.44438 13.2464C6.28146 13.4107 6.2 13.6143 6.2 13.8571V15.5714Z" fill="white"/>
</svg>
