<svg width="328" height="326" viewBox="0 0 328 326" fill="none" xmlns="http://www.w3.org/2000/svg">
<path d="M45.9 266.7C45 266.5 40.8 263.8 40.3 263L39.8 91.1999L161.8 0.899902L167.8 1.49991L285 87.2999C292 92.9999 286 101.4 277.8 98.2999L163.5 15.6999L54.3 93.5999V253.7H156.7V233.2H108.3V216.4H119.5C115 204 110.4 192.8 117.9 180.4C121.2 174.9 127.8 172.5 128.8 165.1C129.8 157.3 124.3 149.1 121.4 142L135.4 136.4C138.1 136.1 138.5 137.8 139.6 139.6C144.3 147.4 146.9 161.8 145.5 170.8C144.1 179.8 130.1 188.3 131 196.5C131.9 204.7 137.5 215.6 138.4 216.2L153 216.5C149.1 203.3 145.1 194.2 152 181C158.9 167.8 165.4 172.2 161.9 156.4C158.4 140.6 155.7 147.2 156.9 143.2L171.6 134.5C177.6 150.3 185.4 162.3 175.7 178.6C166 194.9 162.5 188.6 167.5 204.7C170.8 215.4 175.2 218 186.5 216.4C184.5 206.2 181.2 198.9 183.2 188C184.8 179.3 191.9 175.3 195.5 168.7C199.1 162.1 192.7 151.3 190.1 143L204.2 134.7C212.3 146.9 218.1 162.6 211.1 176.8C207.1 184.8 198.2 188.2 199.6 198.6C201.1 209.8 207.3 220.1 220 216.4V233.2H171.6V253.7H274V137.4C274 134.1 284.8 129.8 287 135.5V264.9C285.2 264.3 282.9 266.8 282.3 266.8H171.5V309.6L321.4 307.7C329.4 309.2 331 321.4 317.7 322.6C258.1 328.1 191.6 316.9 131.6 324.5C92.2 322 49.4 327.5 10.4 324.5C-5.60003 323.3 0.399982 309.5 6.79998 309.5H156.6V266.7H45.8H45.9Z" fill="black"/>
</svg>
