<svg width="26" height="26" viewBox="0 0 26 26" fill="none" xmlns="http://www.w3.org/2000/svg">
<rect x="0.5" y="0.5" width="25" height="25" rx="12" fill="#495675"/>
<path d="M6.2 19V13H4.5V11.5H7.9C7.4325 11.5 7.03229 11.3531 6.69938 11.0594C6.36646 10.7656 6.2 10.4125 6.2 10V7H11.3V10C11.3 10.4125 11.1335 10.7656 10.8006 11.0594C10.4677 11.3531 10.0675 11.5 9.6 11.5H16.4V9.25C16.4 9.0375 16.3185 8.85938 16.1556 8.71563C15.9927 8.57188 15.7908 8.5 15.55 8.5C15.3092 8.5 15.1073 8.57188 14.9444 8.71563C14.7815 8.85938 14.7 9.0375 14.7 9.25H13C13 8.625 13.2479 8.09375 13.7438 7.65625C14.2396 7.21875 14.8417 7 15.55 7C16.2583 7 16.8604 7.21875 17.3563 7.65625C17.8521 8.09375 18.1 8.625 18.1 9.25V11.5H21.5V13H19.8V19H6.2ZM7.9 10H9.6V8.5H7.9V10ZM7.9 17.5H12.15V13H7.9V17.5ZM13.85 17.5H18.1V13H13.85V17.5Z" fill="white"/>
</svg>
