<svg width="10" height="14" viewBox="0 0 10 14" fill="none" xmlns="http://www.w3.org/2000/svg">
<path d="M0.651573 12.8397C0.918078 13.1104 1.24677 13.25 1.62427 13.25H8.37427C8.75176 13.25 9.08046 13.1104 9.34696 12.8397C9.61335 12.5691 9.74927 12.237 9.74927 11.8571V6.14286C9.74927 5.763 9.61335 5.43095 9.34696 5.16034C9.08046 4.8896 8.75176 4.75 8.37427 4.75H8.06177V3.85714C8.06177 3.00186 7.76232 2.26482 7.16727 1.66034C6.57209 1.05571 5.84473 0.75 4.99927 0.75C4.1538 0.75 3.42644 1.05571 2.83126 1.66034C2.23622 2.26482 1.93677 3.00186 1.93677 3.85714V4.75H1.62427C1.24677 4.75 0.918078 4.8896 0.651573 5.16034C0.385187 5.43095 0.249268 5.763 0.249268 6.14286V11.8571C0.249268 12.237 0.385187 12.5691 0.651573 12.8397ZM8.12427 6.39286V11.6071H1.87427V6.39286H8.12427ZM4.99927 10.3929C5.37676 10.3929 5.70546 10.2533 5.97196 9.98252C6.23835 9.71191 6.37427 9.37985 6.37427 9C6.37427 8.62015 6.23835 8.28809 5.97196 8.01748C5.70546 7.74674 5.37676 7.60714 4.99927 7.60714C4.62177 7.60714 4.29308 7.74674 4.02657 8.01748C3.76019 8.28809 3.62427 8.62015 3.62427 9C3.62427 9.37985 3.76019 9.71191 4.02657 9.98252C4.29308 10.2533 4.62177 10.3929 4.99927 10.3929ZM6.43677 4.75H3.56177V3.85714C3.56177 3.44525 3.70095 3.10387 3.98212 2.81824C4.26314 2.53276 4.59734 2.39286 4.99927 2.39286C5.4012 2.39286 5.7354 2.53276 6.01642 2.81824C6.29758 3.10387 6.43677 3.44525 6.43677 3.85714V4.75Z" fill="#495675" stroke="#495675" stroke-width="0.5"/>
</svg>
