<svg width="74" height="69" viewBox="0 0 74 69" fill="none" xmlns="http://www.w3.org/2000/svg">
<rect x="10" y="10" width="54" height="54" rx="27" fill="white"/>
<path d="M33.4428 49L32.9254 44.84C32.6451 44.7317 32.381 44.6017 32.1331 44.45C31.8852 44.2983 31.6426 44.1358 31.4055 43.9625L27.5572 45.5875L24 39.4125L27.3308 36.8775C27.3093 36.7258 27.2985 36.5796 27.2985 36.4388V35.5613C27.2985 35.4204 27.3093 35.2742 27.3308 35.1225L24 32.5875L27.5572 26.4125L31.4055 28.0375C31.6426 27.8642 31.8905 27.7017 32.1493 27.55C32.408 27.3983 32.6667 27.2683 32.9254 27.16L33.4428 23H40.5572L41.0746 27.16C41.3549 27.2683 41.619 27.3983 41.8669 27.55C42.1148 27.7017 42.3574 27.8642 42.5945 28.0375L46.4428 26.4125L50 32.5875L46.6692 35.1225C46.6907 35.2742 46.7015 35.4204 46.7015 35.5613V36.4388C46.7015 36.5796 46.6799 36.7258 46.6368 36.8775L49.9677 39.4125L46.4104 45.5875L42.5945 43.9625C42.3574 44.1358 42.1095 44.2983 41.8507 44.45C41.592 44.6017 41.3333 44.7317 41.0746 44.84L40.5572 49H33.4428ZM35.7065 46.4H38.2612L38.7139 42.955C39.3823 42.7817 40.0021 42.5271 40.5734 42.1912C41.1447 41.8554 41.6675 41.4492 42.1418 40.9725L45.3433 42.305L46.6045 40.095L43.8234 37.9825C43.9312 37.6792 44.0066 37.3596 44.0497 37.0238C44.0929 36.6879 44.1144 36.3467 44.1144 36C44.1144 35.6533 44.0929 35.3121 44.0497 34.9763C44.0066 34.6404 43.9312 34.3208 43.8234 34.0175L46.6045 31.905L45.3433 29.695L42.1418 31.06C41.6675 30.5617 41.1447 30.1446 40.5734 29.8088C40.0021 29.4729 39.3823 29.2183 38.7139 29.045L38.2935 25.6H35.7388L35.2861 29.045C34.6177 29.2183 33.9979 29.4729 33.4266 29.8088C32.8553 30.1446 32.3325 30.5508 31.8582 31.0275L28.6567 29.695L27.3955 31.905L30.1766 33.985C30.0688 34.31 29.9934 34.635 29.9502 34.96C29.9071 35.285 29.8856 35.6317 29.8856 36C29.8856 36.3467 29.9071 36.6825 29.9502 37.0075C29.9934 37.3325 30.0688 37.6575 30.1766 37.9825L27.3955 40.095L28.6567 42.305L31.8582 40.94C32.3325 41.4383 32.8553 41.8554 33.4266 42.1912C33.9979 42.5271 34.6177 42.7817 35.2861 42.955L35.7065 46.4ZM37.0647 40.55C38.3151 40.55 39.3823 40.1058 40.2662 39.2175C41.1501 38.3292 41.592 37.2567 41.592 36C41.592 34.7433 41.1501 33.6708 40.2662 32.7825C39.3823 31.8942 38.3151 31.45 37.0647 31.45C35.7927 31.45 34.7201 31.8942 33.847 32.7825C32.9739 33.6708 32.5373 34.7433 32.5373 36C32.5373 37.2567 32.9739 38.3292 33.847 39.2175C34.7201 40.1058 35.7927 40.55 37.0647 40.55Z" fill="#495675"/>
<path d="M18.4193 30.4105C18.412 30.6493 18.5303 30.868 18.7182 31.0001C18.8797 31.1135 19.0799 31.1542 19.2633 31.1127C19.4521 31.07 19.623 30.9383 19.693 30.7228L19.6938 30.7205C19.7668 30.4959 19.9172 30.0332 20.3647 28.8766C21.248 26.5937 22.5423 24.5205 24.1728 22.7749C25.8034 21.0294 27.7382 19.6457 29.8663 18.702C31.9944 17.7584 34.2745 17.273 36.5768 17.273C38.8791 17.273 41.1592 17.7584 43.2873 18.702C45.4154 19.6457 47.3502 21.0294 48.9808 22.7749C50.6113 24.5205 51.9056 26.5937 52.7889 28.8766C53.616 31.0141 54.0674 33.2958 54.1215 35.6069C54.1308 36.0026 54.4514 36.3287 54.8548 36.3287C55.2552 36.3287 55.5862 36.0031 55.5771 35.5955C55.5215 33.0928 55.0341 30.6209 54.138 28.3047C53.1842 25.8396 51.7858 23.5987 50.0218 21.7103C48.2578 19.8219 46.1627 18.3229 43.8556 17.2999C41.5485 16.2769 39.0751 15.75 36.5768 15.75C34.0785 15.75 31.6051 16.2769 29.298 17.2999C26.9909 18.3229 24.8958 19.8219 23.1318 21.7103C21.3679 23.5987 19.9694 25.8396 19.0156 28.3047C18.9505 28.473 18.8917 28.6215 18.8388 28.7552C18.5545 29.4732 18.439 29.7647 18.4193 30.4105Z" fill="#495675" stroke="#495675" stroke-width="0.5"/>
<path d="M54.7277 35.197C55.0018 35.1449 55.2453 34.9799 55.3992 34.742L56.9891 32.2836C57.1845 31.9814 57.5891 31.905 57.8655 32.1182C58.1109 32.3074 58.1667 32.6592 57.9939 32.9279L55.5621 36.7098C55.2404 37.2101 54.5716 37.3373 54.1148 36.985L50.6607 34.3217C50.415 34.1323 50.3578 33.7809 50.5284 33.5104C50.7235 33.2014 51.1346 33.1214 51.4152 33.3378L53.662 35.0703C53.8804 35.2386 54.1612 35.3047 54.4364 35.2524L54.7277 35.197Z" fill="#495675"/>
<path d="M54.6646 42.0372C54.8271 41.67 54.6478 41.2524 54.2815 41.1116C53.9033 40.9663 53.4845 41.1735 53.3533 41.5515C52.6059 43.7058 51.503 45.6912 50.0995 47.4082C48.5982 49.2447 46.7825 50.7381 44.7567 51.804C42.7311 52.87 40.5344 53.4881 38.292 53.6238C36.0497 53.7595 33.8042 53.4102 31.6836 52.5952C29.563 51.7802 27.6081 50.5151 25.9312 48.8709C24.2543 47.2266 22.8883 45.2356 21.9123 43.0109C20.9971 40.9248 20.4419 38.6721 20.2737 36.3665C20.2454 35.9778 19.9139 35.6762 19.5175 35.7002C19.1239 35.724 18.815 36.0639 18.8437 36.464C19.0229 38.9594 19.6224 41.3988 20.6137 43.6583C21.6673 46.0598 23.143 48.2119 24.9576 49.9911C26.7722 51.7703 28.8903 53.142 31.1916 54.0264C33.493 54.9109 35.9319 55.2906 38.3687 55.1431C40.8055 54.9957 43.1913 54.324 45.3897 53.1671C47.5881 52.0104 49.5553 50.3915 51.1799 48.4041C51.8545 47.5788 52.5927 46.2841 53.2244 45.0581C53.8586 43.8271 54.3949 42.6463 54.6646 42.0372Z" fill="#495675" stroke="#495675" stroke-width="0.5"/>
<path d="M19.3483 36.8179C19.0784 36.8862 18.8447 37.065 18.7034 37.3113L17.238 39.8651C17.0585 40.1779 16.6604 40.278 16.3743 40.0824C16.1189 39.9077 16.0451 39.5579 16.2046 39.2782L18.443 35.3535C18.7382 34.8359 19.3961 34.6694 19.8687 34.9927L23.4533 37.4444C23.709 37.6193 23.7843 37.9686 23.627 38.2499C23.4483 38.5694 23.0439 38.6737 22.7534 38.475L20.4198 36.8789C20.1938 36.7244 19.9112 36.6755 19.6404 36.744L19.3483 36.8179Z" fill="#495675"/>
</svg>
