<svg width="54" height="54" viewBox="0 0 54 54" fill="none" xmlns="http://www.w3.org/2000/svg">
<rect width="54" height="54" rx="27" fill="white"/>
<path d="M15.1 45.5V28.0882H10L27 8.5L33.8 16.3353V10.6765H38.9V22.2118L44 28.0882H38.9V45.5H28.7V32.4412H25.3V45.5H15.1ZM18.5 41.1471H21.9V28.0882H32.1V41.1471H35.5V24.1706L27 14.3765L18.5 24.1706V41.1471ZM23.6 23.7897H30.4C30.4 22.6289 30.06 21.6767 29.38 20.9331C28.7 20.1895 27.9067 19.8176 27 19.8176C26.0933 19.8176 25.3 20.1895 24.62 20.9331C23.94 21.6767 23.6 22.6289 23.6 23.7897Z" fill="#495675"/>
</svg>
