<svg width="26" height="26" viewBox="0 0 26 26" fill="none" xmlns="http://www.w3.org/2000/svg">
<rect x="0.5" y="0.5" width="25" height="25" rx="12" fill="#495675"/>
<path d="M19 20.5V9.78571C19 9.39286 18.8531 9.05655 18.5594 8.77679C18.2656 8.49702 17.9125 8.35714 17.5 8.35714H16.75V9.28571C16.75 9.42857 16.7 9.54762 16.6 9.64286C16.5 9.7381 16.375 9.78571 16.225 9.78571H12.025C11.85 9.78571 11.7094 9.69643 11.6031 9.51786C11.4969 9.33929 11.4875 9.16667 11.575 9L13 6.07143C13.0875 5.89286 13.2156 5.75298 13.3844 5.65179C13.5531 5.5506 13.75 5.5 13.975 5.5H15.7C16 5.5 16.25 5.60714 16.45 5.82143C16.65 6.03571 16.75 6.28571 16.75 6.57143V6.92857H17.5C18.325 6.92857 19.0313 7.20833 19.6188 7.76786C20.2063 8.32738 20.5 9 20.5 9.78571V20.5H19ZM13.525 8.35714H15.25V6.92857H14.2L13.525 8.35714ZM7.75 20.5C7.1125 20.5 6.57812 20.2946 6.14688 19.8839C5.71563 19.4732 5.5 18.9643 5.5 18.3571V16.5714C5.5 16.1786 5.6375 15.8125 5.9125 15.4732C6.1875 15.1339 6.55 14.9286 7 14.8571V13.3571C7 12.9643 7.14688 12.628 7.44063 12.3482C7.73438 12.0685 8.0875 11.9286 8.5 11.9286H14.5C14.9125 11.9286 15.2656 12.0685 15.5594 12.3482C15.8531 12.628 16 12.9643 16 13.3571V14.8571C16.45 14.9286 16.8125 15.125 17.0875 15.4464C17.3625 15.7679 17.5 16.1429 17.5 16.5714V18.3571C17.5 18.9643 17.2844 19.4732 16.8531 19.8839C16.4219 20.2946 15.8875 20.5 15.25 20.5H7.75ZM8.5 13.3571V15.1429C8.725 15.3214 8.90625 15.5327 9.04375 15.7768C9.18125 16.0208 9.25 16.2857 9.25 16.5714V16.9286H13.75V16.5714C13.75 16.2857 13.8188 16.0208 13.9563 15.7768C14.0938 15.5327 14.275 15.3214 14.5 15.1429V13.3571H8.5ZM7.75 19.0714H15.25C15.475 19.0714 15.6563 18.997 15.7938 18.8482C15.9313 18.6994 16 18.5357 16 18.3571V16.5714C16 16.4643 15.9656 16.378 15.8969 16.3125C15.8281 16.247 15.7375 16.2143 15.625 16.2143C15.5125 16.2143 15.4219 16.247 15.3531 16.3125C15.2844 16.378 15.25 16.4643 15.25 16.5714V18.3571H7.75V16.5714C7.75 16.4643 7.71562 16.378 7.64687 16.3125C7.57812 16.247 7.4875 16.2143 7.375 16.2143C7.2625 16.2143 7.17188 16.247 7.10313 16.3125C7.03438 16.378 7 16.4643 7 16.5714V18.3571C7 18.5357 7.06875 18.6994 7.20625 18.8482C7.34375 18.997 7.525 19.0714 7.75 19.0714Z" fill="white"/>
</svg>
